<svg width="28" height="20" viewBox="0 0 28 20" fill="none" xmlns="http://www.w3.org/2000/svg">
<g opacity="0.2">
<path d="M11.9715 19.16C10.5899 19.16 9.17799 18.75 7.78059 17.9322C5.86473 16.8087 4.66016 15.3271 4.60977 15.2626C4.55316 15.1922 4.5161 15.1081 4.50231 15.0189C4.48852 14.9297 4.49847 14.8384 4.53119 14.7542C4.5639 14.67 4.61821 14.5959 4.6887 14.5392C4.75918 14.4825 4.84336 14.4453 4.9328 14.4313C6.24105 14.2239 11.6123 11.8867 13.5715 11.0026L13.5915 10.9942C16.9894 9.63109 20.1512 10.2991 20.2842 10.3281C20.3414 10.3403 20.396 10.3621 20.4458 10.3925L24.9468 13.1787L24.9587 13.1864C26.59 14.259 27.3872 15.511 27.0397 16.4541C26.9465 16.6967 26.7873 16.9087 26.58 17.066C26.4805 17.1449 26.3554 17.1844 26.2285 17.177C26.1016 17.1696 25.9819 17.1159 25.8923 17.0261C24.8614 15.9893 23.5014 15.3417 22.0447 15.194C20.7329 15.2533 16.844 17.4117 15.4469 18.2446C15.4408 18.2485 15.4347 18.2517 15.4285 18.2552C14.3176 18.8582 13.1557 19.16 11.9715 19.16ZM5.97262 15.222C6.47621 15.7261 7.29702 16.457 8.3307 17.058C10.6164 18.3863 12.8359 18.4862 14.9285 17.3546C15.0496 17.2828 16.312 16.5368 17.7491 15.7967C19.8488 14.7147 21.2572 14.1804 22.0531 14.1627C22.0736 14.1622 22.0941 14.1631 22.1145 14.1652C23.555 14.3035 24.9225 14.8631 26.0451 15.7738C25.9033 15.3605 25.399 14.7109 24.3976 14.0512L19.9809 11.3208C19.4851 11.2316 16.7891 10.827 13.9862 11.9476C13.6267 12.11 8.42405 14.4474 5.97262 15.222Z" fill="#353535"/>
<path d="M24.7158 17.668C23.9104 17.668 23.1351 17.3627 22.5468 16.8141C21.9586 16.2655 21.6014 15.5145 21.5476 14.7131C21.5418 14.645 21.5496 14.5764 21.5706 14.5113C21.5916 14.4462 21.6254 14.3859 21.6701 14.334C21.7147 14.2821 21.7692 14.2395 21.8305 14.2088C21.8918 14.1781 21.9586 14.1599 22.027 14.1552C22.0954 14.1505 22.1641 14.1594 22.229 14.1814C22.294 14.2034 22.3538 14.2381 22.4052 14.2835C22.4565 14.3288 22.4983 14.3839 22.5281 14.4455C22.5579 14.5071 22.5751 14.574 22.5787 14.6423C22.604 15.0218 22.7304 15.3878 22.9449 15.7024C23.1594 16.017 23.4542 16.2687 23.7989 16.4318C24.1436 16.5948 24.5257 16.6631 24.9057 16.6297C25.2858 16.5963 25.65 16.4624 25.9608 16.2418C26.0727 16.166 26.21 16.137 26.3432 16.161C26.4764 16.185 26.5948 16.2601 26.673 16.3703C26.7512 16.4804 26.783 16.6167 26.7615 16.7499C26.74 16.8832 26.6669 17.0027 26.558 17.0828C26.0196 17.4635 25.3759 17.668 24.7158 17.668ZM2.9449 15.6814C2.19253 15.6786 1.44096 15.6319 0.694064 15.5416C0.626342 15.5333 0.56093 15.5118 0.501599 15.4782C0.442269 15.4446 0.390194 15.3996 0.348379 15.3459C0.306564 15.2921 0.275837 15.2306 0.257969 15.165C0.240101 15.0993 0.235446 15.0308 0.244273 14.9633C0.2531 14.8959 0.275234 14.8308 0.309398 14.772C0.343563 14.7131 0.389081 14.6615 0.443328 14.6203C0.497576 14.579 0.559478 14.5489 0.625465 14.5316C0.691452 14.5143 0.760218 14.5102 0.827796 14.5196C0.853961 14.5231 3.48597 14.8571 4.86561 14.4487C4.99703 14.4098 5.13855 14.4246 5.25904 14.4898C5.37953 14.555 5.46913 14.6652 5.50811 14.7962C5.54709 14.9273 5.53226 15.0684 5.4669 15.1885C5.40153 15.3087 5.29098 15.398 5.15956 15.4369C4.52708 15.6234 3.70821 15.6814 2.9449 15.6814ZM20.1673 11.3054C20.0302 11.3054 19.8988 11.2511 19.8018 11.1544C19.7049 11.0578 19.6505 10.9267 19.6505 10.79C19.6505 10.6881 19.6808 10.5884 19.7376 10.5037C19.7944 10.4189 19.8751 10.3529 19.9695 10.3139C20.064 10.2749 20.1679 10.2647 20.2681 10.2845C20.3684 10.3044 20.4605 10.3535 20.5328 10.4256C20.605 10.4977 20.6543 10.5895 20.6742 10.6895C20.6942 10.7894 20.6839 10.893 20.6448 10.9872C20.6057 11.0814 20.5394 11.1619 20.4544 11.2185C20.3694 11.2751 20.2695 11.3054 20.1673 11.3054Z" fill="#353535"/>
<path d="M0.76093 15.5451C0.623856 15.5451 0.492395 15.4908 0.395469 15.3942C0.298543 15.2975 0.24409 15.1664 0.24409 15.0298V11.1201C0.242312 8.44587 1.29458 5.87802 3.17402 3.97021C5.05346 2.06241 7.60952 0.967483 10.2911 0.921507C12.9727 0.87553 15.565 1.88219 17.5091 3.72444C19.4532 5.56668 20.5934 8.09695 20.6838 10.7697V10.819C20.6855 10.8867 20.6739 10.954 20.6495 11.0172C20.6251 11.0804 20.5884 11.1382 20.5416 11.1872C20.4948 11.2363 20.4388 11.2757 20.3767 11.3031C20.3147 11.3306 20.2478 11.3456 20.1799 11.3472H20.1667C20.0318 11.3473 19.9023 11.2947 19.8057 11.2009C19.7091 11.107 19.6532 10.9792 19.6498 10.8448V10.8038C19.4815 5.84356 15.4482 1.95779 10.4662 1.95779C8.02929 1.95796 5.69222 2.92334 3.96908 4.64159C2.24594 6.35984 1.27786 8.69022 1.27777 11.1201V15.0298C1.27777 15.1664 1.22332 15.2975 1.12639 15.3942C1.02946 15.4908 0.898005 15.5451 0.76093 15.5451Z" fill="#353535"/>
</g>
</svg>
