<svg width="22" height="20" viewBox="0 0 22 20" fill="none" xmlns="http://www.w3.org/2000/svg">
<path opacity="0.2" d="M21.9599 7.39428H18.3736L14.6058 1.19617C14.4189 0.888281 14.0135 0.787757 13.7003 0.972884C13.3877 1.15801 13.2865 1.55813 13.474 1.86668L16.8342 7.39428H5.96561L9.32579 1.86664C9.51335 1.55809 9.41217 1.15797 9.09957 0.97284C8.78567 0.787713 8.38157 0.888237 8.19401 1.19613L4.42627 7.39424H0.839911V8.6971H2.27238L3.94912 17.5251C4.12442 18.4495 4.94297 19.12 5.89562 19.12H16.9042C17.8568 19.12 18.6754 18.4495 18.85 17.5258L20.5274 8.6971H21.9599L21.9599 7.39428ZM17.5526 17.286C17.4946 17.5938 17.2219 17.8172 16.9042 17.8172H5.89562C5.74157 17.8172 5.59238 17.764 5.47385 17.6669C5.35533 17.5698 5.27494 17.4348 5.24659 17.2853L3.61496 8.6971H19.1849L17.5526 17.286Z" fill="#353535"/>
</svg>
