<svg width="28" height="26" viewBox="0 0 28 26" fill="none" xmlns="http://www.w3.org/2000/svg">
<path opacity="0.2" d="M15.7546 1.93408C15.6114 1.65366 15.3899 1.41756 15.1152 1.25249C14.8405 1.08742 14.5235 0.99996 14.2 1C13.8766 0.999958 13.5596 1.08742 13.2849 1.25249C13.0101 1.41756 12.7887 1.65366 12.6455 1.93408C11.7033 3.77999 10.573 5.99471 9.98315 7.15046C9.85872 7.39419 9.67489 7.60503 9.4475 7.76482C9.2201 7.92461 8.95595 8.02857 8.67778 8.06775C7.35854 8.25296 4.83063 8.6079 2.72432 8.90418C2.40421 8.94907 2.10349 9.07971 1.85618 9.28129C1.60888 9.48288 1.42486 9.74738 1.32496 10.0448C1.22494 10.3423 1.21301 10.6608 1.29053 10.9645C1.36804 11.2681 1.5319 11.5447 1.76356 11.7629C3.28774 13.1999 5.1171 14.9239 6.07141 15.8236C6.27267 16.0132 6.42323 16.2474 6.51013 16.5058C6.59703 16.7642 6.61766 17.0392 6.57024 17.307C6.34486 18.5776 5.91277 21.0118 5.55306 23.0405C5.49836 23.3487 5.53395 23.6656 5.6558 23.9553C5.77765 24.245 5.98091 24.496 6.24258 24.6798C6.5043 24.8636 6.81399 24.973 7.13665 24.9956C7.4593 25.0182 7.78206 24.9531 8.06844 24.8076C9.95238 23.8497 12.2134 22.7006 13.3935 22.1005C13.6422 21.9742 13.919 21.9082 14.2 21.9082C14.481 21.9082 14.7578 21.9742 15.0065 22.1005C16.1867 22.7006 18.4477 23.8497 20.3316 24.8076C20.618 24.9531 20.9407 25.0182 21.2634 24.9956C21.586 24.973 21.8957 24.8636 22.1574 24.6798C22.4191 24.4959 22.6224 24.245 22.7442 23.9553C22.8661 23.6656 22.9017 23.3487 22.847 23.0405C22.4872 21.0118 22.0552 18.5776 21.8298 17.307C21.7824 17.0392 21.803 16.7642 21.8899 16.5058C21.9768 16.2474 22.1274 16.0132 22.3287 15.8236C23.283 14.9239 25.1123 13.1999 26.6365 11.7629C26.8682 11.5447 27.032 11.2681 27.1095 10.9645C27.1871 10.6608 27.1751 10.3423 27.0751 10.0448C26.9752 9.74738 26.7912 9.48289 26.5438 9.2813C26.2965 9.07972 25.9958 8.94908 25.6757 8.90418C23.5694 8.6079 21.0415 8.25296 19.7222 8.06775C19.4441 8.02856 19.1799 7.9246 18.9525 7.76481C18.7251 7.60502 18.5413 7.39418 18.4169 7.15046C17.8271 5.99471 16.6968 3.77999 15.7546 1.93408Z" stroke="#373737" stroke-width="1.44" stroke-miterlimit="10" stroke-linecap="round" stroke-linejoin="round"/>
</svg>
