<svg width="30" height="34" viewBox="0 0 30 34" fill="none" xmlns="http://www.w3.org/2000/svg">
<path d="M5.83448 33.6207H24.1655C27.3828 33.6207 30 31.0035 30 27.7862V10.3448C30 9.77586 29.5345 9.31035 28.9655 9.31035H22.7586V7.75862C22.7586 3.48103 19.2776 0 15 0C10.7224 0 7.24138 3.48103 7.24138 7.75862V9.31035H1.03448C0.465517 9.31035 0 9.77586 0 10.3448V27.7862C0 31.0035 2.61724 33.6207 5.83448 33.6207ZM9.31034 7.75862C9.31034 4.61897 11.8603 2.06897 15 2.06897C18.1397 2.06897 20.6897 4.61897 20.6897 7.75862V9.31035H9.31034V7.75862ZM2.06897 11.3793H7.24138V13.9655C7.24138 14.5345 7.7069 15 8.27586 15C8.84483 15 9.31034 14.5345 9.31034 13.9655V11.3793H20.6897V13.9655C20.6897 14.5345 21.1552 15 21.7241 15C22.2931 15 22.7586 14.5345 22.7586 13.9655V11.3793H27.931V27.7862C27.931 29.8603 26.2397 31.5517 24.1655 31.5517H5.83448C3.76034 31.5517 2.06897 29.8603 2.06897 27.7862V11.3793Z" fill="#353535"/>
</svg>
