<svg width="29" height="19" viewBox="0 0 29 19" fill="none" xmlns="http://www.w3.org/2000/svg">
<g opacity="0.2">
<path d="M26.1526 18.2H3.20733C2.55875 18.1993 1.93691 17.9453 1.47814 17.4936C1.01937 17.0419 0.7611 16.4295 0.759949 15.7905V3.33111C0.760657 2.69186 1.01873 2.07899 1.47755 1.62697C1.93637 1.17495 2.55846 0.920696 3.20733 0.919998H26.1526C26.8014 0.920696 27.4235 1.17495 27.8823 1.62697C28.3412 2.07899 28.5992 2.69186 28.5999 3.33111V15.7905C28.5988 16.4295 28.3405 17.0419 27.8818 17.4936C27.423 17.9453 26.8011 18.1993 26.1526 18.2ZM3.20733 1.9749C2.84236 1.97534 2.49247 2.11837 2.23441 2.37261C1.97634 2.62685 1.83116 2.97156 1.83072 3.33111V15.7905C1.83116 16.1501 1.97634 16.4948 2.23441 16.749C2.49247 17.0033 2.84236 17.1463 3.20733 17.1467H26.1526C26.5175 17.1463 26.8674 17.0033 27.1255 16.749C27.3836 16.4948 27.5287 16.1501 27.5292 15.7905V3.33111C27.5287 2.97156 27.3836 2.62685 27.1255 2.37261C26.8674 2.11837 26.5175 1.97534 26.1526 1.9749H3.20733Z" fill="#353535"/>
<path d="M9.69418 18.2C9.55219 18.2 9.41601 18.1444 9.3156 18.0455C9.2152 17.9466 9.15879 17.8124 9.15879 17.6725V1.44745C9.15879 1.30756 9.2152 1.1734 9.3156 1.07449C9.41601 0.975569 9.55219 0.919998 9.69418 0.919998C9.83617 0.919998 9.97235 0.975569 10.0728 1.07449C10.1732 1.1734 10.2296 1.30756 10.2296 1.44745V17.6725C10.2296 17.8124 10.1732 17.9466 10.0728 18.0455C9.97235 18.1444 9.83617 18.2 9.69418 18.2Z" fill="#353535"/>
<path d="M28.0646 10.0874H1.29533C1.15334 10.0874 1.01716 10.0319 0.916759 9.93296C0.816355 9.83405 0.759949 9.69989 0.759949 9.56C0.759949 9.42011 0.816355 9.28595 0.916759 9.18703C1.01716 9.08812 1.15334 9.03255 1.29533 9.03255H28.0646C28.2066 9.03255 28.3427 9.08812 28.4431 9.18703C28.5435 9.28595 28.5999 9.42011 28.5999 9.56C28.5999 9.69989 28.5435 9.83405 28.4431 9.93296C28.3427 10.0319 28.2066 10.0874 28.0646 10.0874Z" fill="#353535"/>
<path d="M9.69418 10.0875C9.66344 10.0874 9.63277 10.0848 9.6025 10.0795C9.56903 10.0739 8.76094 9.93449 7.84844 9.70175C5.90299 9.20726 5.47803 8.78728 5.33883 8.64981C4.90255 8.19793 4.66276 7.59599 4.6706 6.97239C4.67843 6.34879 4.93326 5.75288 5.38075 5.31177C5.82824 4.87065 6.43295 4.61925 7.06593 4.61117C7.6989 4.60308 8.31003 4.83897 8.76897 5.26851C8.9085 5.40598 9.3338 5.82498 9.83706 7.74095C10.073 8.63992 10.2145 9.43539 10.2202 9.46901C10.2337 9.54472 10.2302 9.62241 10.2099 9.69664C10.1897 9.77087 10.1533 9.83986 10.1032 9.89877C10.0531 9.95768 9.99052 10.0051 9.91987 10.0377C9.84922 10.0703 9.77219 10.0873 9.69418 10.0875ZM7.05406 5.62322C6.78592 5.62334 6.52383 5.70177 6.30092 5.84859C6.078 5.99541 5.90427 6.20404 5.80167 6.4481C5.69908 6.69217 5.67222 6.96073 5.7245 7.21983C5.77678 7.47893 5.90585 7.71694 6.09539 7.9038C6.17938 7.98654 6.57356 8.28752 8.11647 8.68047C8.43803 8.76256 8.74889 8.83277 9.01324 8.88914C8.95568 8.62542 8.88374 8.31785 8.79975 7.99907C8.40156 6.48429 8.09706 6.09694 8.01307 6.01453C7.8873 5.88986 7.73764 5.79107 7.57277 5.7239C7.40791 5.65672 7.23113 5.6225 7.05273 5.62322H7.05406Z" fill="#353535"/>
<path d="M9.69418 10.0875C9.61612 10.0874 9.53901 10.0706 9.46825 10.0381C9.39749 10.0057 9.33479 9.95834 9.28455 9.89948C9.23431 9.84063 9.19774 9.77166 9.1774 9.69741C9.15707 9.62317 9.15346 9.54544 9.16682 9.46967C9.17285 9.43671 9.31406 8.64058 9.55029 7.74161C10.0522 5.82498 10.4785 5.40598 10.6184 5.26917C10.8419 5.03935 11.1097 4.85582 11.4062 4.72933C11.7026 4.60284 12.0218 4.53594 12.3448 4.53256C12.6678 4.52918 12.9883 4.58939 13.2874 4.70965C13.5866 4.82991 13.8583 5.0078 14.0867 5.23289C14.3151 5.45798 14.4956 5.72574 14.6176 6.02046C14.7396 6.31518 14.8006 6.63093 14.7971 6.94919C14.7935 7.26745 14.7255 7.58181 14.5971 7.87384C14.4686 8.16587 14.2822 8.42969 14.0489 8.64981C13.9093 8.78728 13.484 9.20627 11.5392 9.70175C10.6268 9.93449 9.81933 10.0739 9.78553 10.0795C9.75536 10.0847 9.7248 10.0874 9.69418 10.0875ZM12.3343 5.62388C12.1562 5.62357 11.9798 5.65792 11.8152 5.72496C11.6507 5.792 11.5011 5.89041 11.3753 6.01453C11.2916 6.09694 10.9868 6.48429 10.5886 7.99907C10.505 8.31785 10.4327 8.62542 10.3755 8.88914C10.6431 8.83277 10.955 8.7619 11.2789 8.67915C12.8165 8.28686 13.2096 7.98687 13.2936 7.90413C13.4833 7.71734 13.6125 7.47933 13.6648 7.2202C13.7171 6.96108 13.6902 6.69248 13.5876 6.44841C13.4849 6.20433 13.3111 5.99574 13.088 5.84903C12.865 5.70232 12.6028 5.62408 12.3346 5.62421L12.3343 5.62388Z" fill="#353535"/>
<path d="M6.80879 13.5413C6.70737 13.5412 6.60805 13.5128 6.5224 13.4593C6.43675 13.4057 6.36829 13.3294 6.32499 13.239C6.28169 13.1486 6.26533 13.048 6.27782 12.9489C6.29031 12.8497 6.33114 12.7561 6.39554 12.6789L9.27926 9.22506C9.32379 9.17122 9.37868 9.12657 9.44078 9.09367C9.50287 9.06078 9.57095 9.04029 9.6411 9.03339C9.71126 9.02649 9.78211 9.03331 9.84958 9.05345C9.91705 9.07359 9.97982 9.10667 10.0343 9.15077C10.0887 9.19488 10.1338 9.24915 10.167 9.31047C10.2001 9.37178 10.2206 9.43894 10.2273 9.50809C10.234 9.57723 10.2268 9.647 10.206 9.71338C10.1853 9.77977 10.1514 9.84146 10.1064 9.89493L7.22271 13.3491C7.17242 13.4093 7.10921 13.4577 7.03764 13.4909C6.96607 13.5242 6.88791 13.5414 6.80879 13.5413Z" fill="#353535"/>
<path d="M12.5769 13.5413C12.4978 13.5413 12.4197 13.5241 12.3482 13.4909C12.2767 13.4576 12.2136 13.4092 12.1633 13.3491L9.27926 9.89493C9.23425 9.84146 9.20041 9.77977 9.17967 9.71338C9.15893 9.647 9.15171 9.57723 9.15841 9.50809C9.16511 9.43894 9.18561 9.37178 9.21873 9.31047C9.25185 9.24915 9.29693 9.19488 9.3514 9.15077C9.40586 9.10667 9.46863 9.07359 9.5361 9.05345C9.60358 9.03331 9.67442 9.02649 9.74458 9.03339C9.81473 9.04029 9.88281 9.06078 9.94491 9.09367C10.007 9.12657 10.0619 9.17122 10.1064 9.22506L12.9901 12.6789C13.0545 12.7561 13.0954 12.8497 13.1079 12.9489C13.1203 13.048 13.104 13.1486 13.0607 13.239C13.0174 13.3294 12.9489 13.4057 12.8633 13.4593C12.7776 13.5128 12.6783 13.5412 12.5769 13.5413Z" fill="#353535"/>
<path d="M12.3482 13.4909C12.4197 13.5241 12.4978 13.5413 12.5769 13.5413C12.6783 13.5412 12.7776 13.5128 12.8633 13.4593C12.9489 13.4057 13.0174 13.3294 13.0607 13.239C13.104 13.1486 13.1203 13.048 13.1079 12.9489C13.0954 12.8497 13.0545 12.7561 12.9901 12.6789L10.1064 9.22506C10.0619 9.17122 10.007 9.12657 9.94491 9.09367C9.88281 9.06078 9.81473 9.04029 9.74458 9.03339C9.67442 9.02649 9.60358 9.03331 9.5361 9.05345C9.46863 9.07359 9.40586 9.10667 9.3514 9.15077C9.29693 9.19488 9.25185 9.24915 9.21873 9.31047C9.18561 9.37178 9.16511 9.43894 9.15841 9.50809C9.15171 9.57723 9.15893 9.647 9.17967 9.71338C9.20041 9.77977 9.23425 9.84146 9.27926 9.89493L12.1633 13.3491C12.2136 13.4092 12.2767 13.4576 12.3482 13.4909Z" fill="#353535"/>
</g>
</svg>
