<svg width="20" height="21" viewBox="0 0 20 21" fill="none" xmlns="http://www.w3.org/2000/svg">
<path opacity="0.2" fill-rule="evenodd" clip-rule="evenodd" d="M17.7599 11.9053V10.472C17.7599 8.48576 17.7215 7.99712 17.4969 7.57568C17.3942 7.38272 17.2223 7.16096 16.8316 6.81824C16.4255 6.46304 15.8716 6.04832 15.0422 5.43008C13.5129 4.29056 12.4655 3.51392 11.5823 3.00704C10.7356 2.5232 10.1615 2.36 9.59992 2.36C9.03832 2.36 8.46424 2.5232 7.61752 3.008C6.73432 3.51488 5.68792 4.29152 4.15768 5.43104C3.32728 6.04928 2.77336 6.46304 2.36728 6.8192C1.97752 7.16192 1.80568 7.38368 1.70296 7.5776C1.47832 7.99808 1.43992 8.48672 1.43992 10.473V11.9043C1.43992 13.8886 1.44376 15.2067 1.59832 16.1888C1.74232 17.1027 1.98712 17.5194 2.34232 17.8227C2.7292 18.1539 3.31384 18.4026 4.49752 18.5389C5.70328 18.6781 7.30264 18.68 9.59992 18.68C11.8972 18.68 13.4975 18.6781 14.7023 18.5389C15.886 18.4026 16.4706 18.1549 16.8575 17.8227C17.2127 17.5194 17.4585 17.1027 17.6015 16.1888C17.7551 15.2077 17.7599 13.8886 17.7599 11.9053ZM18.7679 6.9008C18.3359 6.0896 17.5257 5.4848 15.9023 4.27616C12.8975 2.03936 11.3961 0.919998 9.59992 0.919998C7.80376 0.919998 6.30136 2.0384 3.29752 4.27616C1.67512 5.48576 0.862964 6.0896 0.431924 6.9008C-7.62367e-05 7.712 -7.62939e-05 8.63168 -7.62939e-05 10.472V11.9034C-7.62939e-05 15.777 -7.62939e-05 17.7133 1.40536 18.9162C2.81272 20.12 5.07448 20.12 9.59992 20.12C14.1254 20.12 16.3881 20.12 17.7945 18.9171C19.1999 17.7142 19.1999 15.7779 19.1999 11.9053V10.472C19.1999 8.63072 19.1999 7.712 18.7679 6.9008Z" fill="#353535"/>
</svg>
