<svg width="25" height="22" viewBox="0 0 25 22" fill="none" xmlns="http://www.w3.org/2000/svg">
<path opacity="0.2" d="M15.0758 1.51479C15.0758 2.06419 13.9623 2.50957 12.5888 2.50957C11.2153 2.50957 10.1018 2.06419 10.1018 1.51479M15.0758 1.51479C15.0758 0.965384 13.9623 0.520004 12.5888 0.520004C11.2153 0.520004 10.1018 0.965384 10.1018 1.51479M15.0758 1.51479V3.50435C15.0758 4.05148 13.9616 4.49913 12.5888 4.49913C11.216 4.49913 10.1018 4.05148 10.1018 3.50435V1.51479M15.0758 7.48348C15.0758 8.03289 13.9623 8.47827 12.5888 8.47827C11.2153 8.47827 10.1018 8.03289 10.1018 7.48348M15.0758 7.48348C15.0758 6.93408 13.9623 6.4887 12.5888 6.4887C11.2153 6.4887 10.1018 6.93408 10.1018 7.48348M15.0758 7.48348V9.47305C15.0758 10.0202 13.9616 10.4678 12.5888 10.4678C11.216 10.4678 10.1018 10.0202 10.1018 9.47305V7.48348M8.60967 4.49913C8.60967 5.04854 7.49622 5.49392 6.12272 5.49392C4.74921 5.49392 3.63576 5.04854 3.63576 4.49913M8.60967 4.49913C8.60967 3.94973 7.49622 3.50435 6.12272 3.50435C4.74921 3.50435 3.63576 3.94973 3.63576 4.49913M8.60967 4.49913V6.4887C8.60967 7.03583 7.49552 7.48348 6.12272 7.48348C4.74992 7.48348 3.63576 7.03583 3.63576 6.4887V4.49913M21.5418 4.49913C21.5418 5.04854 20.4284 5.49392 19.0549 5.49392C17.6814 5.49392 16.5679 5.04854 16.5679 4.49913M21.5418 4.49913C21.5418 3.94973 20.4284 3.50435 19.0549 3.50435C17.6814 3.50435 16.5679 3.94973 16.5679 4.49913M21.5418 4.49913L21.5418 6.4887C21.5418 7.03583 20.4277 7.48348 19.0549 7.48348C17.6821 7.48348 16.5679 7.03583 16.5679 6.4887V4.49913M10.1018 2.808L8.05259 3.88237M17.125 3.88237L15.0758 2.808M3.63576 6.19027L1.1488 7.48348M1.1488 7.48348V15.4417L12.5888 21.4104M1.1488 7.48348L12.5888 13.4522M24.0288 7.48348L21.5418 6.19027M24.0288 7.48348L12.5888 13.4522M24.0288 7.48348V15.4417L12.5888 21.4104M12.5888 21.4104V13.4522" stroke="#353535" stroke-width="0.88" stroke-linecap="round" stroke-linejoin="round"/>
</svg>
