<?xml version="1.0" encoding="UTF-8" standalone="no"?>
<!-- Created with Inkscape (http://www.inkscape.org/) -->

<svg
   version="1.1"
   id="svg2"
   width="2666.6667"
   height="2666.6667"
   viewBox="0 0 2666.6667 2666.6667"
   sodipodi:docname="menu-01.eps"
   xmlns:inkscape="http://www.inkscape.org/namespaces/inkscape"
   xmlns:sodipodi="http://sodipodi.sourceforge.net/DTD/sodipodi-0.dtd"
   xmlns="http://www.w3.org/2000/svg"
   xmlns:svg="http://www.w3.org/2000/svg">
  <defs
     id="defs6" />
  <sodipodi:namedview
     id="namedview4"
     pagecolor="#ffffff"
     bordercolor="#000000"
     borderopacity="0.25"
     inkscape:showpageshadow="2"
     inkscape:pageopacity="0.0"
     inkscape:pagecheckerboard="0"
     inkscape:deskcolor="#d1d1d1" />
  <g
     id="g8"
     inkscape:groupmode="layer"
     inkscape:label="ink_ext_XXXXXX"
     transform="matrix(1.3333333,0,0,-1.3333333,0,2666.6667)">
    <g
       id="g10"
       transform="scale(0.1)">
      <path
         d="M 20000,0 H 0 V 20000 H 20000 V 0"
         style="fill:#f5f6f5;fill-opacity:1;fill-rule:nonzero;stroke:none"
         id="path12" />
      <path
         d="m 14187.5,12208.3 h -8375 c -172.59,0 -312.5,140 -312.5,312.5 0,172.6 139.91,312.5 312.5,312.5 h 8375 c 172.6,0 312.5,-139.9 312.5,-312.5 0,-172.5 -139.9,-312.5 -312.5,-312.5"
         style="fill:#2e2d2d;fill-opacity:1;fill-rule:nonzero;stroke:none"
         id="path14" />
      <path
         d="m 14187.5,9687.5 h -8375 c -172.59,0 -312.5,139.9 -312.5,312.5 0,172.6 139.91,312.5 312.5,312.5 h 8375 c 172.6,0 312.5,-139.9 312.5,-312.5 0,-172.6 -139.9,-312.5 -312.5,-312.5"
         style="fill:#2e2d2d;fill-opacity:1;fill-rule:nonzero;stroke:none"
         id="path16" />
      <path
         d="m 14187.5,7166.7 h -8375 c -172.59,0 -312.5,139.9 -312.5,312.5 0,172.6 139.91,312.5 312.5,312.5 h 8375 c 172.6,0 312.5,-139.9 312.5,-312.5 0,-172.6 -139.9,-312.5 -312.5,-312.5"
         style="fill:#2e2d2d;fill-opacity:1;fill-rule:nonzero;stroke:none"
         id="path18" />
    </g>
  </g>
</svg>
