<svg width="18" height="28" viewBox="0 0 18 28" fill="none" xmlns="http://www.w3.org/2000/svg">
<g opacity="0.2">
<path d="M10.7237 24.1762L8.96813 24.3354C8.79714 24.3509 8.67098 24.5023 8.68648 24.6733C8.70199 24.8442 8.85331 24.9704 9.0243 24.9549L10.7799 24.7957C10.8609 24.7869 10.9353 24.7466 10.9869 24.6835C11.0385 24.6204 11.0633 24.5396 11.056 24.4584C11.0486 24.3772 11.0097 24.3022 10.9475 24.2494C10.8854 24.1966 10.805 24.1704 10.7237 24.1762ZM13.0403 1.89755L2.68244 2.83675C2.09963 2.88959 1.66874 3.40665 1.72158 3.98946L3.38359 22.3189C3.43644 22.9017 3.95331 23.3328 4.53611 23.28L14.894 22.3408C15.4768 22.2879 15.9077 21.7709 15.8549 21.1881L14.1929 2.85863C14.14 2.27583 13.6231 1.84471 13.0403 1.89755ZM15.2354 21.2442C15.2572 21.4854 15.079 21.6994 14.8378 21.7212L4.47994 22.6604C4.23875 22.6823 4.02493 22.5039 4.00306 22.2627L2.34105 3.93329C2.31918 3.6921 2.49743 3.47814 2.73861 3.45627L13.0965 2.51707C13.3377 2.4952 13.5516 2.67361 13.5734 2.9148L15.2354 21.2442L15.2354 21.2442Z" fill="#353535"/>
<path d="M12.8905 0.245619L2.53265 1.18481C1.03916 1.32023 -0.0658398 2.6456 0.0696004 4.1393L1.9563 24.9467C2.09174 26.4404 3.4171 27.5454 4.9106 27.41L15.2685 26.4708C16.762 26.3354 17.867 25.01 17.7316 23.5163L15.8449 2.70884C15.7094 1.21519 14.384 0.110198 12.8905 0.245619ZM17.1121 23.5724C17.2165 24.7245 16.3642 25.7468 15.2124 25.8512L4.85442 26.7904C3.70254 26.8948 2.68028 26.0426 2.57581 24.8905L0.689116 4.08307C0.584652 2.93099 1.43694 1.90873 2.58882 1.80428L12.9468 0.865084C14.0986 0.760638 15.1209 1.61293 15.2254 2.76501L17.1121 23.5724Z" fill="#353535"/>
</g>
</svg>
