<svg width="26" height="30" viewBox="0 0 26 30" fill="none" xmlns="http://www.w3.org/2000/svg">
<path opacity="0.2" d="M5.3724 26.1213C4.98475 26.3543 4.43559 25.9595 4.20946 25.733C4.50019 27.2377 3.48263 28.9852 2.07741 27.5775C0.672196 26.1698 0.526829 24.3738 0.62374 23.5972C0.720651 22.8205 1.20521 22.3837 1.49594 21.9468C1.35057 21.1216 2.80424 21.2672 3.24035 21.0731C2.75579 19.9566 2.56197 18.5004 2.65888 17.6267C2.75579 16.753 2.99807 15.6365 3.77336 13.9862C2.80425 8.69523 3.96718 4.27803 4.83939 1.75392C5.71159 -0.770189 6.6807 3.74409 6.77761 5.05468C6.87452 6.36528 6.72916 10.2971 7.31063 9.76312C7.89209 9.22918 7.74673 8.01566 7.74673 7.09339C7.74673 6.35557 8.3282 7.27137 8.61893 7.8215C8.61893 7.77296 8.84183 7.50113 9.73341 6.80215C10.5087 4.08387 12.0593 4.42366 12.3016 4.18095C12.5438 3.93825 15.645 1.80246 18.94 1.26852C22.235 0.734571 20.6359 3.30722 19.2307 4.18095C17.8255 5.05468 17.244 6.99631 16.711 8.59815C16.2846 9.87962 16.3395 11.0737 16.4203 11.5106C17.3571 10.8472 19.9576 9.05443 22.8649 7.19047C26.4991 4.86052 23.3495 10.0058 23.0103 10.5883C22.7389 11.0543 20.9267 13.2419 20.0545 14.2774C19.473 14.9731 18.2422 16.452 17.9709 16.8015C18.6977 18.015 18.2616 20.7818 18.1647 21.51C18.0678 22.2381 17.9709 22.2381 18.6008 22.8205C19.1047 23.2865 18.94 23.8884 18.7946 24.1311C19.15 24.7298 19.9091 25.9951 20.1029 26.2669C20.3452 26.6067 22.0896 29.2279 19.7153 28.791C17.341 28.3542 15.645 26.4611 15.4996 26.4611C15.3543 26.4611 15.112 26.5096 14.6274 26.4611C14.1429 26.4125 13.9006 25.8301 13.5614 25.5388C11.4294 25.9271 9.97569 25.5388 9.34577 25.5388C8.71584 25.5388 8.3282 25.3447 7.21372 25.1505C6.09923 24.9563 5.85695 25.8301 5.3724 26.1213Z" stroke="#373737" stroke-width="0.96"/>
</svg>
