<svg width="30" height="30" viewBox="0 0 30 30" fill="none" xmlns="http://www.w3.org/2000/svg">
<path d="M11.8607 23.7224C5.32069 23.7224 0 18.4015 0 11.8613C0 5.32094 5.32069 0 11.8607 0C18.4006 0 23.7213 5.32094 23.7213 11.8613C23.7213 18.4015 18.4006 23.7224 11.8607 23.7224ZM11.8607 2.37222C6.62894 2.37222 2.37211 6.62926 2.37211 11.8613C2.37211 17.0932 6.62894 21.3502 11.8607 21.3502C17.0924 21.3502 21.3492 17.0932 21.3492 11.8613C21.3492 6.62926 17.0936 2.37222 11.8607 2.37222Z" fill="#353535"/>
<path d="M28.8124 30C28.6567 30.0001 28.5024 29.9695 28.3585 29.9099C28.2146 29.8502 28.0839 29.7628 27.9739 29.6525L18.8483 20.5264C18.7382 20.4163 18.6508 20.2856 18.5912 20.1417C18.5316 19.9978 18.501 19.8436 18.501 19.6878C18.5009 19.4928 18.549 19.3008 18.641 19.1287C18.7329 18.9567 18.8658 18.81 19.028 18.7017C19.1901 18.5933 19.3765 18.5266 19.5706 18.5075C19.7647 18.4884 19.9605 18.5175 20.1407 18.5922C20.2846 18.6518 20.4153 18.7391 20.5254 18.8493L29.651 27.9753C29.7754 28.0992 29.8708 28.2491 29.9302 28.4143C29.9895 28.5795 30.0115 28.7558 29.9944 28.9305C29.9773 29.1052 29.9215 29.274 29.8312 29.4245C29.741 29.5751 29.6183 29.7036 29.4723 29.801C29.2769 29.9313 29.0472 30.0005 28.8124 30Z" fill="#353535"/>
</svg>
