<?xml version="1.0" encoding="UTF-8" standalone="no"?>
<!-- Uploaded to: SVG Repo, www.svgrepo.com, Generator: SVG Repo Mixer Tools -->

<svg
   version="1.1"
   id="Layer_1"
   width="600.41998"
   height="600.41998"
   viewBox="0 0 30.020999 30.020999"
   enable-background="new 0 0 40 40"
   xml:space="preserve"
   sodipodi:docname="bin.svg"
   inkscape:version="1.3.2 (091e20ef0f, 2023-11-25, custom)"
   xmlns:inkscape="http://www.inkscape.org/namespaces/inkscape"
   xmlns:sodipodi="http://sodipodi.sourceforge.net/DTD/sodipodi-0.dtd"
   xmlns="http://www.w3.org/2000/svg"
   xmlns:svg="http://www.w3.org/2000/svg"><defs
   id="defs14" /><sodipodi:namedview
   id="namedview14"
   pagecolor="#ffffff"
   bordercolor="#000000"
   borderopacity="0.25"
   inkscape:showpageshadow="2"
   inkscape:pageopacity="0.0"
   inkscape:pagecheckerboard="0"
   inkscape:deskcolor="#d1d1d1"
   inkscape:zoom="0.98625"
   inkscape:cx="300.63371"
   inkscape:cy="300.12674"
   inkscape:window-width="2536"
   inkscape:window-height="1374"
   inkscape:window-x="0"
   inkscape:window-y="0"
   inkscape:window-maximized="1"
   inkscape:current-layer="Layer_1" />
<g
   display="none"
   id="g2"
   transform="translate(-4.99,-4.99)">
	<path
   display="inline"
   d="m 20.01,36.5 c -0.277,0 -0.537,-0.137 -0.693,-0.368 L 9.468,21.529 C 8.297,19.668 7.678,17.536 7.678,15.367 7.678,8.824 13.206,3.5 20,3.5 c 6.795,0 12.322,5.324 12.322,11.867 0,2.164 -0.612,4.284 -1.77,6.129 L 20.701,36.132 C 20.547,36.363 20.287,36.5 20.01,36.5 Z M 20,5.17 c -5.873,0 -10.652,4.574 -10.652,10.197 0,1.854 0.525,3.669 1.52,5.251 l 9.14,13.55 9.146,-13.581 c 0.981,-1.566 1.499,-3.371 1.499,-5.22 C 30.652,9.744 25.873,5.17 20,5.17 Z"
   id="path1" />
	<path
   display="inline"
   d="m 20,20.857 c -3.159,0 -5.728,-2.482 -5.728,-5.535 0,-3.051 2.569,-5.534 5.728,-5.534 3.159,0 5.729,2.483 5.729,5.534 0,3.053 -2.571,5.535 -5.729,5.535 z m 0,-9.399 c -2.237,0 -4.057,1.734 -4.057,3.864 0,2.13 1.82,3.865 4.057,3.865 2.237,0 4.058,-1.734 4.058,-3.865 0,-2.13 -1.822,-3.864 -4.058,-3.864 z"
   id="path2" />
</g>
<path
   display="none"
   d="M 31.715,29.299 21.069,18.625 C 24.987,13.935 24.757,6.917 20.362,2.511 18.11,0.253 15.114,-0.99 11.929,-0.99 c -3.185,0 -6.179,1.243 -8.431,3.501 -4.647,4.66 -4.647,12.241 0,16.899 2.253,2.257 5.248,3.5 8.431,3.5 2.866,0 5.573,-1.015 7.728,-2.86 l 10.639,10.665 c 0.193,0.197 0.452,0.295 0.708,0.295 0.256,0 0.514,-0.098 0.709,-0.293 0.393,-0.391 0.394,-1.027 0.002,-1.418 z M 4.776,18.136 c -3.945,-3.958 -3.945,-10.395 0,-14.351 1.912,-1.914 4.452,-2.97 7.153,-2.97 2.701,0 5.243,1.056 7.153,2.97 3.946,3.956 3.946,10.394 0,14.351 -1.91,1.914 -4.452,2.969 -7.153,2.969 -2.701,0 -5.241,-1.055 -7.153,-2.969 z"
   id="path3" />
<path
   display="none"
   d="m 20.39,29.858 c -0.066,0 -0.136,-0.009 -0.206,-0.024 L 9.686,27.273 -0.924,29.834 c -0.069,0.016 -0.139,0.024 -0.205,0.024 -0.191,0 -0.38,-0.064 -0.532,-0.184 C -1.87,29.51 -1.99,29.262 -1.99,28.996 V 3.645 c 0,-0.397 0.27,-0.741 0.657,-0.836 L 9.427,0.186 9.834,0.189 20.338,2.747 30.945,0.186 C 31.01,0.17 31.08,0.163 31.148,0.163 c 0.195,0 0.38,0.063 0.533,0.183 0.21,0.163 0.329,0.41 0.329,0.676 v 25.352 c 0,0.397 -0.27,0.741 -0.656,0.837 l -10.759,2.622 c -0.069,0.016 -0.139,0.025 -0.205,0.025 z m -9.899,-4.16 9.039,2.203 V 4.321 L 10.491,2.118 Z M 21.25,4.321 v 23.58 l 9.039,-2.202 V 2.118 Z m -21.519,0 v 23.58 L 8.77,25.699 V 2.118 Z"
   id="path4" />
<g
   display="none"
   id="g7"
   transform="translate(-4.99,-4.99)">
	<path
   display="inline"
   d="M 9.708,35 C 7.112,35 5,32.893 5,30.303 c 0,-2.592 2.112,-4.699 4.708,-4.699 2.595,0 4.707,2.107 4.707,4.699 0,2.59 -2.112,4.697 -4.707,4.697 z m 0,-7.555 c -1.578,0 -2.863,1.281 -2.863,2.857 0,1.574 1.285,2.855 2.863,2.855 1.578,0 2.861,-1.281 2.861,-2.855 -0.001,-1.575 -1.284,-2.857 -2.861,-2.857 z"
   id="path5" />
	<path
   display="inline"
   d="M 24.574,35 C 23.953,35 23.449,34.495 23.449,33.874 23.449,24.322 15.678,16.55 6.126,16.55 5.505,16.55 5,16.045 5,15.425 c 0,-0.62 0.505,-1.126 1.126,-1.126 10.792,0 19.573,8.781 19.573,19.575 0,0.621 -0.506,1.126 -1.125,1.126 z"
   id="path6" />
	<path
   display="inline"
   d="m 33.916,35 c -0.597,0 -1.082,-0.486 -1.082,-1.084 0,-14.75 -12,-26.751 -26.751,-26.751 C 5.486,7.165 5,6.68 5,6.083 5,5.486 5.486,5 6.083,5 22.027,5 35,17.972 35,33.916 35,34.514 34.514,35 33.916,35 Z"
   id="path7" />
</g>
<g
   display="none"
   id="g9"
   transform="translate(-4.99,-4.99)">
	<path
   display="inline"
   fill-rule="evenodd"
   clip-rule="evenodd"
   d="m 20,29.616 c -6.911,0 -13.412,-3.681 -17,-9.615 3.588,-5.935 10.089,-9.617 17,-9.617 6.91,0 13.412,3.682 17,9.617 -3.588,5.935 -10.09,9.615 -17,9.615 z M 19.998,12.254 c -5.817,0 -11.309,2.848 -14.687,7.618 l -0.088,0.125 0.088,0.124 c 3.378,4.77 8.87,7.618 14.687,7.618 5.82,0 11.311,-2.849 14.687,-7.618 l 0.089,-0.124 -0.089,-0.125 C 31.309,15.103 25.818,12.254 19.998,12.254 Z"
   id="path8" />
	<path
   display="inline"
   fill-rule="evenodd"
   clip-rule="evenodd"
   d="m 19.987,13.521 c -3.574,0 -6.478,2.9 -6.478,6.479 0,3.579 2.904,6.478 6.478,6.478 3.581,0 6.478,-2.898 6.478,-6.478 0,-3.58 -2.897,-6.479 -6.478,-6.479 z m 0,11.336 c -2.68,0 -4.858,-2.175 -4.858,-4.858 0,-2.683 2.178,-4.859 4.858,-4.859 2.686,0 4.858,2.175 4.858,4.859 0,2.684 -2.172,4.858 -4.858,4.858 z"
   id="path9" />
</g>
<path
   display="none"
   d="m 2.346,30.51 c -0.399,0 -0.725,-0.325 -0.725,-0.726 v -7.599 c 0,-0.4 0.326,-0.725 0.725,-0.725 h 3.181 v -6.336 c 0,-0.342 0.276,-0.619 0.619,-0.619 h 8.247 V 8.556 h -3.181 c -0.398,0 -0.725,-0.325 -0.725,-0.726 V 0.233 c 0,-0.399 0.326,-0.723 0.725,-0.723 h 7.598 c 0.398,0 0.725,0.324 0.725,0.723 v 7.599 c 0,0.401 -0.326,0.726 -0.725,0.726 h -3.18 v 5.949 h 8.245 c 0.341,0 0.618,0.277 0.618,0.619 v 6.336 h 3.182 c 0.397,0 0.724,0.324 0.724,0.725 v 7.599 c 0,0.399 -0.326,0.725 -0.724,0.725 h -7.599 c -0.4,0 -0.726,-0.325 -0.726,-0.725 v -7.599 c 0,-0.4 0.325,-0.725 0.726,-0.725 h 3.179 V 15.745 H 6.764 v 5.717 h 3.18 c 0.399,0 0.725,0.324 0.725,0.725 v 7.599 c 0,0.4 -0.325,0.726 -0.725,0.726 H 2.346 Z M 3.071,29.061 H 9.22 V 22.91 H 3.071 Z m 17.729,0 h 6.149 V 22.91 H 20.8 Z M 11.937,7.109 h 6.146 v -6.15 h -6.146 z"
   id="path10" />
<g
   id="g14"
   transform="translate(-4.99,-4.99)">
	<path
   d="m 11.018,35.01 c -0.402,0 -0.736,-0.314 -0.759,-0.717 L 8.879,9.946 H 5.75 C 5.331,9.946 4.99,9.604 4.99,9.186 4.99,8.767 5.331,8.425 5.75,8.425 H 9.34 L 9.495,8.45 9.6,8.426 h 5.171 V 5.75 c 0,-0.419 0.34,-0.76 0.76,-0.76 h 8.939 c 0.419,0 0.76,0.341 0.76,0.76 v 2.676 h 5.174 l 0.175,0.028 0.118,-0.028 h 3.554 c 0.419,0 0.76,0.342 0.76,0.761 0,0.418 -0.341,0.76 -0.76,0.76 h -3.128 l -1.36,24.346 c -0.023,0.402 -0.356,0.718 -0.759,0.718 H 11.018 Z m 0.717,-1.52 H 28.284 L 29.6,9.946 H 10.4 Z M 16.29,8.426 h 7.42 V 6.51 h -7.42 z"
   id="path11"
   style="display:inline;mix-blend-mode:normal;fill:#3b3b3b;fill-opacity:0.5" />
	<path
   d="m 14.302,12.201 c -0.249,0.012 -0.435,0.102 -0.57,0.252 -0.135,0.152 -0.203,0.348 -0.192,0.551 l 0.998,17.608 c 0.024,0.401 0.357,0.716 0.759,0.716 v 0.19 l 0.045,-0.19 c 0.417,-0.024 0.737,-0.385 0.715,-0.804 L 15.058,12.918 c -0.024,-0.402 -0.356,-0.717 -0.756,-0.717 z"
   id="path12"
   style="fill:#3b3b3b;fill-opacity:0.5" />
	<path
   d="m 25.709,12.202 c -0.445,0 -0.776,0.314 -0.8,0.716 l -1,17.606 c -0.022,0.419 0.298,0.779 0.717,0.804 l 0.044,0.19 v -0.19 c 0.402,0 0.735,-0.314 0.757,-0.716 l 1.001,-17.608 c 0.011,-0.203 -0.058,-0.398 -0.192,-0.551 -0.136,-0.15 -0.321,-0.24 -0.523,-0.251 -0.002,0 -0.003,0 -0.004,0 z"
   id="path13"
   style="display:inline;fill:#3b3b3b;fill-opacity:0.5" />
	<path
   d="m 20,12.201 c -0.419,0 -0.76,0.341 -0.76,0.76 v 17.607 c 0,0.419 0.341,0.76 0.76,0.76 0.419,0 0.76,-0.341 0.76,-0.76 V 12.961 c 0,-0.419 -0.341,-0.76 -0.76,-0.76 z"
   id="path14"
   style="fill:#3b3b3b;fill-opacity:0.5" />
</g>
</svg>
