<svg width="24" height="24" viewBox="0 0 24 24" fill="none" xmlns="http://www.w3.org/2000/svg">
<path opacity="0.2" d="M23.1263 4.30901C23.1263 3.74874 22.9094 3.22323 22.5154 2.8292L20.9371 1.25084C20.7915 1.10504 20.6252 0.981581 20.4435 0.884484C20.1441 0.724773 19.8076 0.640007 19.4574 0.640007C19.1018 0.640007 18.7604 0.727675 18.4576 0.892185C18.2812 0.988083 18.1196 1.10889 17.9776 1.25089L16.0046 3.22385L14.5341 4.69445L3.13108 16.0974L3.12868 16.1001C3.12528 16.1036 3.12215 16.1073 3.11886 16.1109C3.08554 16.147 3.05884 16.1887 3.04001 16.2341L1.42917 20.1461C1.42844 20.1479 1.42766 20.1496 1.42699 20.1514L0.277874 22.9422C0.246406 23.0186 0.23826 23.1026 0.254463 23.1837C0.270666 23.2647 0.310492 23.3391 0.368923 23.3975C0.427353 23.456 0.501773 23.4958 0.582802 23.512C0.663832 23.5282 0.747844 23.5201 0.824251 23.4886L3.61613 22.339L3.61897 22.3378L7.53234 20.7264C7.57766 20.7076 7.61931 20.6809 7.65539 20.6477C7.65908 20.6443 7.66281 20.6412 7.66633 20.6377L7.6689 20.6354L19.0717 9.23255L22.5154 5.78882C22.9094 5.39479 23.1263 4.86928 23.1263 4.30901ZM3.55859 21.4573L2.30903 20.2078L3.65977 16.9274C3.82329 17.0121 3.97279 17.1216 4.10302 17.2518C4.4985 17.6474 4.68176 18.1844 4.59314 18.6884C4.58149 18.7547 4.58598 18.8227 4.60621 18.8869C4.62644 18.951 4.66183 19.0093 4.70938 19.0569C4.75693 19.1044 4.81524 19.1398 4.87937 19.1601C4.9435 19.1803 5.01157 19.1848 5.0778 19.1731C5.58194 19.0846 6.11894 19.2678 6.51442 19.6633C6.64473 19.7935 6.75419 19.943 6.83898 20.1065L3.55859 21.4573ZM14.5341 9.23227C14.6158 9.31396 14.723 9.35481 14.8301 9.35481C14.9371 9.35481 15.0443 9.31396 15.126 9.23227L16.803 7.55519L18.1841 8.93628L7.51733 19.6031C7.40353 19.4091 7.26542 19.2304 7.10634 19.0714C6.77821 18.7433 6.38021 18.5148 5.95845 18.3999L13.5477 10.8107C13.6256 10.7321 13.6692 10.6258 13.669 10.5151C13.6688 10.4044 13.6247 10.2984 13.5464 10.2201C13.4682 10.1418 13.3621 10.0977 13.2514 10.0975C13.1407 10.0972 13.0344 10.1409 12.9558 10.2188L5.36648 17.808C5.25152 17.3861 5.023 16.9882 4.69488 16.66C4.53588 16.501 4.35722 16.3629 4.16323 16.2491L14.83 5.58235L16.211 6.96339L14.534 8.64041C14.4556 8.71892 14.4115 8.82537 14.4115 8.93636C14.4116 9.04735 14.4557 9.15379 14.5341 9.23227ZM15.422 4.99032L16.3006 4.11174L19.6546 7.46579L18.776 8.34437L15.422 4.99032ZM1.96377 21.0463L2.72008 21.8026L1.43436 22.332L1.96377 21.0463ZM22.2832 4.43412C22.2559 4.7225 22.1287 4.99226 21.9236 5.1968L20.2466 6.87388L16.8925 3.51983L18.5696 1.84275C18.5997 1.81267 18.631 1.78455 18.6632 1.75815C18.6771 1.74671 18.6921 1.73684 18.7065 1.72607C18.7252 1.71206 18.7437 1.69744 18.763 1.6846C18.7837 1.67082 18.8055 1.65882 18.827 1.64632C18.8406 1.63834 18.8539 1.62958 18.8678 1.62216C18.8983 1.60624 18.9295 1.59159 18.9612 1.57824C18.9664 1.57601 18.9714 1.57322 18.9767 1.57104C19.1293 1.5086 19.2926 1.47664 19.4574 1.47696C19.6255 1.47696 19.7882 1.50932 19.9384 1.5711C19.9425 1.57277 19.9464 1.57495 19.9504 1.57673C19.9833 1.59063 20.0157 1.60558 20.0472 1.62227C20.0601 1.62908 20.0723 1.63728 20.085 1.64454C20.1076 1.65754 20.1303 1.67021 20.152 1.68466C20.1705 1.69694 20.1881 1.71094 20.206 1.72428C20.2212 1.73561 20.237 1.7461 20.2518 1.75815C20.284 1.78455 20.3153 1.81262 20.3453 1.8427L21.9236 3.42106C22.1288 3.62561 22.256 3.89539 22.2833 4.18379C22.2914 4.26704 22.2914 4.35088 22.2832 4.43412Z" fill="#353535"/>
</svg>
